<?xml version="1.0" encoding="UTF-8"?>
<svg xmlns="http://www.w3.org/2000/svg" id="Layer_1" data-name="Layer 1" viewBox="0 0 714.88 162.67">
  <defs>
    <style>
      .cls-1 {
        isolation: isolate;
      }

      .cls-2 {
        fill: #fff;
      }

      .cls-3 {
        fill: #be5927;
      }
    </style>
  </defs>
  <g>
    <g class="cls-1">
      <g class="cls-1">
        <path class="cls-2" d="M191.45,139.33v-28.98h10.85c1.82,0,3.42.37,4.8,1.1,1.38.73,2.45,1.73,3.21,2.98.76,1.26,1.14,2.68,1.14,4.29,0,1.68-.38,3.15-1.14,4.39-.76,1.24-1.83,2.21-3.21,2.9-1.16.58-2.47.91-3.93.99l10.19,12.34h-6l-9.9-12.3h-1.24v12.3h-4.76ZM196.21,114.49v8.61h5.84c1.46,0,2.6-.38,3.42-1.14.81-.76,1.22-1.82,1.22-3.17,0-1.21-.4-2.24-1.2-3.06-.8-.83-1.93-1.24-3.4-1.24h-5.88Z"></path>
        <path class="cls-2" d="M225.73,139.33v-28.98h19.29v4.35h-14.53v7.74h13.33v4.18h-13.33v8.36h14.74v4.35h-19.5Z"></path>
        <path class="cls-2" d="M259.02,139.33v-28.98h18.71v4.35h-13.95v7.87h13.25v4.35h-13.25v12.42h-4.76Z"></path>
        <path class="cls-2" d="M304.24,139.75c-2.07,0-4-.39-5.8-1.16-1.79-.77-3.37-1.84-4.72-3.21-1.35-1.37-2.41-2.95-3.17-4.76-.76-1.81-1.14-3.75-1.14-5.82s.38-4,1.14-5.8c.76-1.79,1.81-3.37,3.15-4.74,1.34-1.37,2.9-2.43,4.68-3.19,1.78-.76,3.71-1.14,5.78-1.14s4,.38,5.78,1.14c1.78.76,3.35,1.82,4.7,3.19,1.35,1.37,2.41,2.95,3.17,4.76.76,1.81,1.14,3.75,1.14,5.82s-.38,4.01-1.14,5.82c-.76,1.81-1.81,3.39-3.15,4.74s-2.9,2.42-4.68,3.19c-1.78.77-3.69,1.16-5.73,1.16ZM304.15,135.19c1.96,0,3.68-.44,5.15-1.33,1.48-.88,2.64-2.1,3.48-3.66.84-1.56,1.26-3.36,1.26-5.4,0-1.52-.24-2.91-.72-4.16-.48-1.26-1.17-2.35-2.05-3.27-.88-.92-1.93-1.63-3.13-2.13s-2.53-.75-4-.75c-1.93,0-3.64.43-5.11,1.3-1.48.87-2.64,2.08-3.48,3.62-.84,1.55-1.26,3.34-1.26,5.38,0,1.52.24,2.92.72,4.2.48,1.28,1.16,2.38,2.03,3.29s1.91,1.62,3.13,2.13c1.21.51,2.54.77,3.98.77Z"></path>
        <path class="cls-2" d="M332.64,139.33v-28.98h10.85c1.82,0,3.42.37,4.8,1.1,1.38.73,2.45,1.73,3.21,2.98.76,1.26,1.14,2.68,1.14,4.29,0,1.68-.38,3.15-1.14,4.39-.76,1.24-1.83,2.21-3.21,2.9-1.16.58-2.47.91-3.93.99l10.19,12.34h-6l-9.9-12.3h-1.24v12.3h-4.76ZM337.4,114.49v8.61h5.84c1.46,0,2.6-.38,3.42-1.14.81-.76,1.22-1.82,1.22-3.17,0-1.21-.4-2.24-1.2-3.06-.8-.83-1.93-1.24-3.4-1.24h-5.88Z"></path>
        <path class="cls-2" d="M366.92,139.33v-28.98h3.31l10.97,18.05,10.97-18.05h3.31v28.98h-4.76v-18.55l-7.87,12.92h-3.31l-7.87-12.92v18.55h-4.76Z"></path>
        <path class="cls-2" d="M410.65,139.33v-28.98h19.29v4.35h-14.53v7.74h13.33v4.18h-13.33v8.36h14.74v4.35h-19.5Z"></path>
        <path class="cls-2" d="M443.94,139.33v-28.98h11.01c2.1,0,4.04.37,5.84,1.1,1.79.73,3.36,1.75,4.7,3.06,1.34,1.31,2.38,2.84,3.13,4.6s1.12,3.66,1.12,5.73-.37,3.95-1.12,5.71c-.75,1.77-1.78,3.31-3.11,4.62-1.32,1.31-2.88,2.33-4.68,3.06-1.79.73-3.73,1.1-5.8,1.1h-11.1ZM448.7,114.7v20.29h6.13c1.99,0,3.73-.43,5.24-1.28,1.5-.86,2.68-2.05,3.52-3.58.84-1.53,1.26-3.3,1.26-5.32s-.43-3.74-1.28-5.26c-.86-1.52-2.04-2.71-3.54-3.56s-3.24-1.28-5.2-1.28h-6.13Z"></path>
        <path class="cls-2" d="M513.75,139.75c-2.1,0-4.04-.38-5.82-1.14s-3.33-1.82-4.66-3.19c-1.32-1.37-2.35-2.95-3.06-4.76-.72-1.81-1.08-3.75-1.08-5.82s.36-4.01,1.08-5.82c.72-1.81,1.74-3.39,3.06-4.74,1.33-1.35,2.88-2.42,4.66-3.19s3.72-1.16,5.82-1.16c2.35,0,4.38.39,6.09,1.16,1.71.77,3.23,1.82,4.55,3.15l-3.23,3.23c-.86-.94-1.9-1.67-3.13-2.19-1.23-.52-2.66-.79-4.29-.79-1.44,0-2.75.25-3.93.75s-2.21,1.21-3.08,2.13c-.87.93-1.54,2.02-2.01,3.29s-.7,2.66-.7,4.18.23,2.91.7,4.18,1.14,2.37,2.01,3.29c.87.93,1.9,1.64,3.08,2.13s2.5.75,3.93.75c1.77,0,3.26-.27,4.49-.81,1.23-.54,2.27-1.28,3.13-2.21l3.23,3.23c-1.33,1.35-2.88,2.42-4.68,3.19-1.79.77-3.85,1.16-6.17,1.16Z"></path>
        <path class="cls-2" d="M537.72,139.33v-28.98h4.76v11.8h13.66v-11.8h4.76v28.98h-4.76v-12.84h-13.66v12.84h-4.76Z"></path>
        <path class="cls-2" d="M587.24,139.75c-2.18,0-4.14-.5-5.88-1.49-1.74-.99-3.11-2.35-4.12-4.08-1.01-1.72-1.51-3.68-1.51-5.86v-17.97h4.76v17.93c0,1.41.3,2.63.89,3.67.59,1.04,1.4,1.84,2.42,2.4,1.02.57,2.17.85,3.44.85s2.44-.28,3.44-.85c.99-.57,1.78-1.37,2.36-2.4s.87-2.24.87-3.62v-17.97h4.76v18.01c0,2.18-.5,4.13-1.49,5.84-.99,1.71-2.35,3.06-4.06,4.06-1.71.99-3.67,1.49-5.88,1.49Z"></path>
        <path class="cls-2" d="M613.49,139.33v-28.98h10.85c1.82,0,3.42.37,4.8,1.1,1.38.73,2.45,1.73,3.21,2.98.76,1.26,1.14,2.68,1.14,4.29,0,1.68-.38,3.15-1.14,4.39-.76,1.24-1.83,2.21-3.21,2.9-1.16.58-2.47.91-3.93.99l10.19,12.34h-6l-9.9-12.3h-1.24v12.3h-4.76ZM618.25,114.49v8.61h5.84c1.46,0,2.6-.38,3.42-1.14.81-.76,1.22-1.82,1.22-3.17,0-1.21-.4-2.24-1.2-3.06-.8-.83-1.93-1.24-3.4-1.24h-5.88Z"></path>
        <path class="cls-2" d="M660.61,139.75c-2.1,0-4.04-.38-5.82-1.14s-3.33-1.82-4.66-3.19c-1.32-1.37-2.35-2.95-3.06-4.76-.72-1.81-1.08-3.75-1.08-5.82s.36-4.01,1.08-5.82c.72-1.81,1.74-3.39,3.06-4.74,1.33-1.35,2.88-2.42,4.66-3.19s3.72-1.16,5.82-1.16c2.35,0,4.38.39,6.09,1.16,1.71.77,3.23,1.82,4.55,3.15l-3.23,3.23c-.86-.94-1.9-1.67-3.13-2.19-1.23-.52-2.66-.79-4.29-.79-1.44,0-2.75.25-3.93.75s-2.21,1.21-3.08,2.13c-.87.93-1.54,2.02-2.01,3.29s-.7,2.66-.7,4.18.23,2.91.7,4.18,1.14,2.37,2.01,3.29c.87.93,1.9,1.64,3.08,2.13s2.5.75,3.93.75c1.77,0,3.26-.27,4.49-.81,1.23-.54,2.27-1.28,3.13-2.21l3.23,3.23c-1.33,1.35-2.88,2.42-4.68,3.19-1.79.77-3.85,1.16-6.17,1.16Z"></path>
        <path class="cls-2" d="M684.58,139.33v-28.98h4.76v11.8h13.66v-11.8h4.76v28.98h-4.76v-12.84h-13.66v12.84h-4.76Z"></path>
      </g>
    </g>
    <g>
      <path class="cls-2" d="M191.94,93.13V27.84h30.26c4.22,0,8.02.84,11.42,2.52,3.39,1.68,6.08,4.1,8.07,7.24,1.99,3.15,2.98,6.95,2.98,11.42s-.99,8.19-2.98,11.37c-1.99,3.18-4.68,5.61-8.07,7.29-3.39,1.68-7.2,2.52-11.42,2.52h-11.92v22.92h-18.34ZM210.28,41.05v15.96h8.34c1.41,0,2.71-.29,3.9-.87,1.19-.58,2.15-1.47,2.89-2.66.73-1.19,1.1-2.67,1.1-4.45s-.37-3.25-1.1-4.45c-.73-1.19-1.7-2.08-2.89-2.66-1.19-.58-2.49-.87-3.9-.87h-8.34Z"></path>
      <path class="cls-2" d="M298.77,94.23c-5.75,0-10.76-1.18-15.04-3.53-4.28-2.35-7.61-5.61-9.99-9.77-2.38-4.16-3.58-8.92-3.58-14.3V27.84h18.34v40.44c0,2.08.46,3.85,1.38,5.32.92,1.47,2.15,2.58,3.71,3.35,1.56.77,3.29,1.15,5.18,1.15s3.68-.38,5.18-1.15c1.5-.76,2.67-1.86,3.53-3.3.86-1.44,1.28-3.19,1.28-5.27V27.84h18.43v38.88c0,5.38-1.18,10.13-3.53,14.26-2.35,4.13-5.65,7.37-9.9,9.72-4.25,2.35-9.25,3.53-14.99,3.53Z"></path>
      <path class="cls-2" d="M356.44,93.13V27.84h28.88c4.52,0,8.5.83,11.92,2.48,3.42,1.65,6.11,3.94,8.07,6.88,1.96,2.93,2.93,6.36,2.93,10.27s-.99,7.34-2.98,10.27c-1.99,2.93-4.75,5.23-8.3,6.88-1.16.55-2.35,1.01-3.58,1.38l19.07,27.14h-20.82l-16.6-26.04h-.27v26.04h-18.34ZM374.78,41.05v13.39h7.61c2.51,0,4.42-.61,5.73-1.83,1.31-1.22,1.97-2.84,1.97-4.86s-.66-3.64-1.97-4.86c-1.32-1.22-3.23-1.83-5.73-1.83h-7.61Z"></path>
      <path class="cls-2" d="M436.68,93.13V27.84h18.34v65.29h-18.34Z"></path>
      <path class="cls-2" d="M501.05,93.13v-49.7h-19.53v-15.59h57.49v15.59h-19.62v49.7h-18.34Z"></path>
      <path class="cls-2" d="M553.5,93.13l24.85-65.29h18.71l24.57,65.29h-19.07l-3.58-11h-23.11l-3.67,11h-18.71ZM594.21,67.82l-6.6-20.26-6.88,20.26h13.48Z"></path>
      <path class="cls-2" d="M646.48,93.13V27.84h12.84l27.51,34.57V27.84h18.34v65.29h-13.75l-26.59-33.38v33.38h-18.34Z"></path>
    </g>
  </g>
  <g>
    <g id="Believe._Build._Fight." data-name="Believe. Build. Fight.">
      <rect class="cls-3" x="7.11" y="6.33" width="150" height="150"></rect>
    </g>
    <g>
      <polygon class="cls-2" points="133.82 25.95 128.73 39.27 61.9 106.09 52.56 96.75 120.79 28.5 133.82 25.95"></polygon>
      <polygon class="cls-2" points="67.57 120.81 37.83 91.08 31.89 97.03 41.65 106.8 19.57 128.88 28.91 138.22 50.57 116.56 61.9 127.89 67.57 120.81"></polygon>
      <polygon class="cls-2" points="78.28 61.82 69.5 70.6 31.42 32.52 39.5 24.45 78.28 61.82"></polygon>
      <path class="cls-2" d="M109.17,92.49l-12.44-12.16h-.03l-9.75,9.75v.03l12.44,12.44v.03l-12.16,12.16h0c.23.34,21.56,32.35,55.07,21.09,0,0,12.17-25.48-18.96-55.49h-.03l-14.13,12.16h-.03Z"></path>
      <polygon class="cls-3" points="111.68 96.75 103.38 104.67 130.78 124.28 111.68 96.75"></polygon>
    </g>
  </g>
</svg>
