<?xml version="1.0" encoding="UTF-8"?>
<svg xmlns="http://www.w3.org/2000/svg" id="Layer_1" version="1.1" viewBox="0 0 714.9 162.7">
  <defs>
    <style>
      .st0 {
        isolation: isolate;
      }

      .st1 {
        fill: #fff;
      }

      .st2 {
        fill: #be5927;
      }

      .st3 {
        fill: #122c54;
      }
    </style>
  </defs>
  <g>
    <g class="st0">
      <g class="st0">
        <path class="st3" d="M191.4,139.2v-28.8h10.8c1.8,0,3.4.4,4.8,1.1,1.4.7,2.4,1.7,3.2,3,.8,1.3,1.1,2.7,1.1,4.3s-.4,3.1-1.1,4.4-1.8,2.2-3.2,2.9-2.5.9-3.9,1l10.1,12.3h-6l-9.9-12.2h-1.2v12.2h-4.7ZM196.2,114.5v8.6h5.8c1.5,0,2.6-.4,3.4-1.1.8-.8,1.2-1.8,1.2-3.2s-.4-2.2-1.2-3c-.8-.8-1.9-1.2-3.4-1.2,0,0-5.9,0-5.9,0Z"></path>
        <path class="st3" d="M225.6,139.2v-28.8h19.2v4.3h-14.5v7.7h13.3v4.2h-13.3v8.3h14.7v4.3h-19.4Z"></path>
        <path class="st3" d="M258.7,139.2v-28.8h18.6v4.3h-13.9v7.8h13.2v4.3h-13.2v12.4h-4.7,0Z"></path>
        <path class="st3" d="M303.7,139.6c-2.1,0-4-.4-5.8-1.2-1.8-.8-3.4-1.8-4.7-3.2-1.3-1.4-2.4-2.9-3.2-4.7s-1.1-3.7-1.1-5.8.4-4,1.1-5.8c.8-1.8,1.8-3.4,3.1-4.7,1.3-1.4,2.9-2.4,4.7-3.2s3.7-1.1,5.8-1.1,4,.4,5.8,1.1,3.3,1.8,4.7,3.2,2.4,2.9,3.2,4.7c.8,1.8,1.1,3.7,1.1,5.8s-.4,4-1.1,5.8c-.8,1.8-1.8,3.4-3.1,4.7s-2.9,2.4-4.7,3.2-3.7,1.2-5.7,1.2h0ZM303.6,135.1c2,0,3.7-.4,5.1-1.3,1.5-.9,2.6-2.1,3.5-3.6s1.3-3.3,1.3-5.4-.2-2.9-.7-4.1c-.5-1.3-1.2-2.3-2-3.3-.9-.9-1.9-1.6-3.1-2.1s-2.5-.7-4-.7-3.6.4-5.1,1.3c-1.5.9-2.6,2.1-3.5,3.6-.8,1.5-1.3,3.3-1.3,5.4s.2,2.9.7,4.2,1.2,2.4,2,3.3,1.9,1.6,3.1,2.1c1.2.5,2.5.8,4,.8h0Z"></path>
        <path class="st3" d="M331.9,139.2v-28.8h10.8c1.8,0,3.4.4,4.8,1.1,1.4.7,2.4,1.7,3.2,3,.8,1.3,1.1,2.7,1.1,4.3s-.4,3.1-1.1,4.4-1.8,2.2-3.2,2.9-2.5.9-3.9,1l10.1,12.3h-6l-9.9-12.2h-1.2v12.2h-4.7ZM336.7,114.5v8.6h5.8c1.5,0,2.6-.4,3.4-1.1.8-.8,1.2-1.8,1.2-3.2s-.4-2.2-1.2-3c-.8-.8-1.9-1.2-3.4-1.2,0,0-5.9,0-5.9,0Z"></path>
        <path class="st3" d="M366,139.2v-28.8h3.3l10.9,18,10.9-18h3.3v28.8h-4.7v-18.5l-7.8,12.9h-3.3l-7.8-12.9v18.5h-4.7,0Z"></path>
        <path class="st3" d="M409.6,139.2v-28.8h19.2v4.3h-14.5v7.7h13.3v4.2h-13.3v8.3h14.7v4.3h-19.4Z"></path>
        <path class="st3" d="M442.7,139.2v-28.8h11c2.1,0,4,.4,5.8,1.1,1.8.7,3.3,1.7,4.7,3,1.3,1.3,2.4,2.8,3.1,4.6s1.1,3.6,1.1,5.7-.4,3.9-1.1,5.7c-.7,1.8-1.8,3.3-3.1,4.6-1.3,1.3-2.9,2.3-4.7,3-1.8.7-3.7,1.1-5.8,1.1h-11,0ZM447.4,114.7v20.2h6.1c2,0,3.7-.4,5.2-1.3,1.5-.9,2.7-2,3.5-3.6s1.3-3.3,1.3-5.3-.4-3.7-1.3-5.2c-.9-1.5-2-2.7-3.5-3.5s-3.2-1.3-5.2-1.3h-6.1,0Z"></path>
        <path class="st3" d="M512.1,139.6c-2.1,0-4-.4-5.8-1.1s-3.3-1.8-4.6-3.2c-1.3-1.4-2.3-2.9-3-4.7-.7-1.8-1.1-3.7-1.1-5.8s.4-4,1.1-5.8,1.7-3.4,3-4.7c1.3-1.3,2.9-2.4,4.6-3.2s3.7-1.2,5.8-1.2,4.4.4,6.1,1.2c1.7.8,3.2,1.8,4.5,3.1l-3.2,3.2c-.9-.9-1.9-1.7-3.1-2.2-1.2-.5-2.6-.8-4.3-.8s-2.7.2-3.9.7-2.2,1.2-3.1,2.1c-.9.9-1.5,2-2,3.3s-.7,2.6-.7,4.2.2,2.9.7,4.2c.5,1.3,1.1,2.4,2,3.3.9.9,1.9,1.6,3.1,2.1s2.5.7,3.9.7,3.2-.3,4.5-.8,2.3-1.3,3.1-2.2l3.2,3.2c-1.3,1.3-2.9,2.4-4.7,3.2-1.8.8-3.8,1.2-6.1,1.2h0Z"></path>
        <path class="st3" d="M536,139.2v-28.8h4.7v11.7h13.6v-11.7h4.7v28.8h-4.7v-12.8h-13.6v12.8h-4.7Z"></path>
        <path class="st3" d="M585.3,139.6c-2.2,0-4.1-.5-5.9-1.5s-3.1-2.3-4.1-4.1c-1-1.7-1.5-3.7-1.5-5.8v-17.9h4.7v17.8c0,1.4.3,2.6.9,3.7s1.4,1.8,2.4,2.4c1,.6,2.2.8,3.4.8s2.4-.3,3.4-.8c1-.6,1.8-1.4,2.3-2.4s.9-2.2.9-3.6v-17.9h4.7v17.9c0,2.2-.5,4.1-1.5,5.8-1,1.7-2.3,3-4,4-1.7,1-3.7,1.5-5.9,1.5h0Z"></path>
        <path class="st3" d="M611.4,139.2v-28.8h10.8c1.8,0,3.4.4,4.8,1.1,1.4.7,2.4,1.7,3.2,3,.8,1.3,1.1,2.7,1.1,4.3s-.4,3.1-1.1,4.4-1.8,2.2-3.2,2.9c-1.2.6-2.5.9-3.9,1l10.1,12.3h-6l-9.9-12.2h-1.2v12.2h-4.7ZM616.1,114.5v8.6h5.8c1.5,0,2.6-.4,3.4-1.1.8-.8,1.2-1.8,1.2-3.2s-.4-2.2-1.2-3c-.8-.8-1.9-1.2-3.4-1.2h-5.9,0Z"></path>
        <path class="st3" d="M658.3,139.6c-2.1,0-4-.4-5.8-1.1s-3.3-1.8-4.6-3.2c-1.3-1.4-2.3-2.9-3-4.7-.7-1.8-1.1-3.7-1.1-5.8s.4-4,1.1-5.8c.7-1.8,1.7-3.4,3-4.7,1.3-1.3,2.9-2.4,4.6-3.2s3.7-1.2,5.8-1.2,4.4.4,6.1,1.2c1.7.8,3.2,1.8,4.5,3.1l-3.2,3.2c-.9-.9-1.9-1.7-3.1-2.2-1.2-.5-2.6-.8-4.3-.8s-2.7.2-3.9.7-2.2,1.2-3.1,2.1c-.9.9-1.5,2-2,3.3s-.7,2.6-.7,4.2.2,2.9.7,4.2c.5,1.3,1.1,2.4,2,3.3.9.9,1.9,1.6,3.1,2.1s2.5.7,3.9.7,3.2-.3,4.5-.8,2.3-1.3,3.1-2.2l3.2,3.2c-1.3,1.3-2.9,2.4-4.7,3.2-1.8.8-3.8,1.2-6.1,1.2h0Z"></path>
        <path class="st3" d="M682.1,139.2v-28.8h4.7v11.7h13.6v-11.7h4.7v28.8h-4.7v-12.8h-13.6v12.8h-4.7Z"></path>
      </g>
    </g>
    <g>
      <path class="st2" d="M191.9,93.1V27.8h30.3c4.2,0,8,.8,11.4,2.5,3.4,1.7,6.1,4.1,8.1,7.2,2,3.2,3,7,3,11.4s-1,8.2-3,11.4c-2,3.2-4.7,5.6-8.1,7.3-3.4,1.7-7.2,2.5-11.4,2.5h-11.9v22.9h-18.3ZM210.3,41v16h8.3c1.4,0,2.7-.3,3.9-.9,1.2-.6,2.1-1.5,2.9-2.7.7-1.2,1.1-2.7,1.1-4.5s-.4-3.2-1.1-4.5c-.7-1.2-1.7-2.1-2.9-2.7s-2.5-.9-3.9-.9h-8.3Z"></path>
      <path class="st2" d="M298.8,94.2c-5.8,0-10.8-1.2-15-3.5s-7.6-5.6-10-9.8c-2.4-4.2-3.6-8.9-3.6-14.3V27.8h18.3v40.4c0,2.1.5,3.8,1.4,5.3s2.1,2.6,3.7,3.3,3.3,1.2,5.2,1.2,3.7-.4,5.2-1.2c1.5-.8,2.7-1.9,3.5-3.3s1.3-3.2,1.3-5.3V27.8h18.4v38.9c0,5.4-1.2,10.1-3.5,14.3-2.4,4.1-5.6,7.4-9.9,9.7s-9.2,3.5-15,3.5Z"></path>
      <path class="st2" d="M356.4,93.1V27.8h28.9c4.5,0,8.5.8,11.9,2.5s6.1,3.9,8.1,6.9c2,2.9,2.9,6.4,2.9,10.3s-1,7.3-3,10.3c-2,2.9-4.8,5.2-8.3,6.9-1.2.6-2.4,1-3.6,1.4l19.1,27.1h-20.8l-16.6-26h-.3v26h-18.3,0ZM374.8,41v13.4h7.6c2.5,0,4.4-.6,5.7-1.8s2-2.8,2-4.9-.7-3.6-2-4.9c-1.3-1.2-3.2-1.8-5.7-1.8h-7.6Z"></path>
      <path class="st2" d="M436.7,93.1V27.8h18.3v65.3s-18.3,0-18.3,0Z"></path>
      <path class="st2" d="M501,93.1v-49.7h-19.5v-15.6h57.5v15.6h-19.6v49.7h-18.3Z"></path>
      <path class="st2" d="M553.5,93.1l24.8-65.3h18.7l24.6,65.3h-19.1l-3.6-11h-23.1l-3.7,11h-18.7,0ZM594.2,67.8l-6.6-20.3-6.9,20.3h13.5Z"></path>
      <path class="st2" d="M646.5,93.1V27.8h12.8l27.5,34.6V27.8h18.3v65.3h-13.8l-26.6-33.4v33.4h-18.4Z"></path>
    </g>
  </g>
  <g>
    <g id="Believe._Build._Fight.">
      <rect class="st2" x="7.1" y="6.3" width="150" height="150"></rect>
    </g>
    <g>
      <polygon class="st1" points="133.8 26 128.7 39.3 61.9 106.1 52.6 96.8 120.8 28.5 133.8 26"></polygon>
      <polygon class="st1" points="67.6 120.8 37.8 91.1 31.9 97 41.7 106.8 19.6 128.9 28.9 138.2 50.6 116.6 61.9 127.9 67.6 120.8"></polygon>
      <polygon class="st1" points="78.3 61.8 69.5 70.6 31.4 32.5 39.5 24.5 78.3 61.8"></polygon>
      <path class="st1" d="M109.2,92.5l-12.4-12.2h0l-9.8,9.8h0s12.4,12.5,12.4,12.5h0s-12.2,12.2-12.2,12.2h0c.2.3,21.6,32.3,55.1,21.1,0,0,12.2-25.5-19-55.5h0l-14.1,12.2h0,0Z"></path>
      <polygon class="st2" points="111.7 96.8 103.4 104.7 130.8 124.3 111.7 96.8"></polygon>
    </g>
  </g>
</svg>
